<?xml version="1.0" encoding="utf-8"?>
<!-- Generator: Adobe Illustrator 19.2.1, SVG Export Plug-In . SVG Version: 6.00 Build 0)  -->
<svg version="1.1" id="layer" xmlns="http://www.w3.org/2000/svg" xmlns:xlink="http://www.w3.org/1999/xlink" x="0px" y="0px"
	 viewBox="0 0 652 652" style="enable-background:new 0 0 652 652;" xml:space="preserve">
<style type="text/css">
	.st0{fill:#FFFFFF;}
	.st1{fill:#5F7A99;}
	.st2{fill:#97A7BC;}
	.st3{fill:#00416B;}
	.st4{fill:url(#SVGID_1_);}
	.st5{fill:url(#SVGID_2_);}
	.st6{fill:url(#SVGID_3_);}
	.st7{fill:#FFD100;}
	.st8{fill:#FFB600;}
	.st9{fill:#385E82;}
	.st10{fill:#597595;}
	.st11{fill:url(#SVGID_4_);}
	.st12{fill:url(#SVGID_5_);}
	.st13{fill:url(#SVGID_6_);}
	.st14{fill:url(#SVGID_7_);}
	.st15{fill:url(#SVGID_8_);}
	.st16{fill:url(#SVGID_9_);}
	.st17{fill:url(#SVGID_10_);}
	.st18{fill:#517091;}
	.st19{fill:#456789;}
	.st20{fill:#798FA9;}
	.st21{fill:#78C366;}
	.st22{fill:#3B6084;}
	.st23{fill:#0E426A;}
	.st24{fill:#00833E;}
	.st25{fill:#6D85A2;}
	.st26{fill:#6ABF4B;}
	.st27{fill:#198844;}
	.st28{fill:none;}
</style>
<path class="st0" d="M360.9,293.3"/>
<path class="st0" d="M349.7,299.2"/>
<g>
	<polygon class="st1" points="20,321.1 29.7,346.1 41,371.8 41,342.1 	"/>
	<polygon class="st2" points="41,270.6 29.5,296.2 20,321.1 41,300.2 	"/>
	<polygon class="st2" points="91.6,249.6 65.9,259.5 41,270.6 70.7,270.6 	"/>
	<polygon class="st3" points="41,371.8 91.6,392.6 70.7,371.8 	"/>
	
		<radialGradient id="SVGID_1_" cx="91.3226" cy="281.0226" r="0" gradientTransform="matrix(1 0 0 -1 0 652)" gradientUnits="userSpaceOnUse">
		<stop  offset="0" style="stop-color:#FFFFFF"/>
		<stop  offset="9.040742e-002" style="stop-color:#F9F9F9"/>
		<stop  offset="0.2168" style="stop-color:#E6E6E6"/>
		<stop  offset="0.3643" style="stop-color:#C9C9C9"/>
		<stop  offset="0.528" style="stop-color:#9F9F9F"/>
		<stop  offset="0.7048" style="stop-color:#6A6A6A"/>
		<stop  offset="0.8898" style="stop-color:#2A2A2A"/>
		<stop  offset="1" style="stop-color:#000000"/>
	</radialGradient>
	<path class="st4" d="M91.3,371L91.3,371L91.3,371z"/>
	
		<radialGradient id="SVGID_2_" cx="91.4563" cy="380.9111" r="0" gradientTransform="matrix(1 0 0 -1 0 652)" gradientUnits="userSpaceOnUse">
		<stop  offset="0" style="stop-color:#FFFFFF"/>
		<stop  offset="9.040742e-002" style="stop-color:#F9F9F9"/>
		<stop  offset="0.2168" style="stop-color:#E6E6E6"/>
		<stop  offset="0.3643" style="stop-color:#C9C9C9"/>
		<stop  offset="0.528" style="stop-color:#9F9F9F"/>
		<stop  offset="0.7048" style="stop-color:#6A6A6A"/>
		<stop  offset="0.8898" style="stop-color:#2A2A2A"/>
		<stop  offset="1" style="stop-color:#000000"/>
	</radialGradient>
	<path class="st5" d="M91.5,271.1L91.5,271.1L91.5,271.1z"/>
	
		<radialGradient id="SVGID_3_" cx="41.4451" cy="330.9" r="0" gradientTransform="matrix(1 0 0 -1 0 652)" gradientUnits="userSpaceOnUse">
		<stop  offset="0" style="stop-color:#FFFFFF"/>
		<stop  offset="9.040742e-002" style="stop-color:#F9F9F9"/>
		<stop  offset="0.2168" style="stop-color:#E6E6E6"/>
		<stop  offset="0.3643" style="stop-color:#C9C9C9"/>
		<stop  offset="0.528" style="stop-color:#9F9F9F"/>
		<stop  offset="0.7048" style="stop-color:#6A6A6A"/>
		<stop  offset="0.8898" style="stop-color:#2A2A2A"/>
		<stop  offset="1" style="stop-color:#000000"/>
	</radialGradient>
	<path class="st6" d="M41.4,321.1L41.4,321.1L41.4,321.1z"/>
	<polygon class="st7" points="163.1,321.1 142.3,300.2 141.5,321.1 	"/>
	<polygon class="st8" points="141.5,321.1 142.3,342.1 163.1,321.1 	"/>
	<polygon class="st2" points="20,321.1 41,342.1 41.4,321.1 41.4,321.1 41.4,321.1 	"/>
	<polygon class="st9" points="41.4,321.1 41,300.2 20,321.1 	"/>
	<polygon class="st3" points="91.6,392.6 112.6,371.8 91.3,371 91.3,371 91.3,371 	"/>
	<polygon class="st9" points="91.3,371 70.7,371.8 91.6,392.6 	"/>
	<polygon class="st9" points="91.6,249.6 70.7,270.6 91.5,271.1 	"/>
	<polygon class="st10" points="91.5,271.1 91.5,271.1 91.5,271.1 112.6,270.6 91.6,249.6 	"/>
	
		<radialGradient id="SVGID_4_" cx="-13.6301" cy="825.936" r="0" gradientTransform="matrix(0.7071 -0.7071 -0.7071 -0.7071 649.8115 930.5161)" gradientUnits="userSpaceOnUse">
		<stop  offset="0" style="stop-color:#FFFFFF"/>
		<stop  offset="9.040742e-002" style="stop-color:#F9F9F9"/>
		<stop  offset="0.2168" style="stop-color:#E6E6E6"/>
		<stop  offset="0.3643" style="stop-color:#C9C9C9"/>
		<stop  offset="0.528" style="stop-color:#9F9F9F"/>
		<stop  offset="0.7048" style="stop-color:#6A6A6A"/>
		<stop  offset="0.8898" style="stop-color:#2A2A2A"/>
		<stop  offset="1" style="stop-color:#000000"/>
	</radialGradient>
	<path class="st11" d="M56.2,356.1L56.2,356.1L56.2,356.1z"/>
	
		<radialGradient id="SVGID_5_" cx="36.2004" cy="774.9709" r="0" gradientTransform="matrix(0.7071 -0.7071 -0.7071 -0.7071 649.8115 930.5161)" gradientUnits="userSpaceOnUse">
		<stop  offset="0" style="stop-color:#FFFFFF"/>
		<stop  offset="9.040742e-002" style="stop-color:#F9F9F9"/>
		<stop  offset="0.2168" style="stop-color:#E6E6E6"/>
		<stop  offset="0.3643" style="stop-color:#C9C9C9"/>
		<stop  offset="0.528" style="stop-color:#9F9F9F"/>
		<stop  offset="0.7048" style="stop-color:#6A6A6A"/>
		<stop  offset="0.8898" style="stop-color:#2A2A2A"/>
		<stop  offset="1" style="stop-color:#000000"/>
	</radialGradient>
	<path class="st12" d="M127.4,356.9L127.4,356.9L127.4,356.9z"/>
	
		<radialGradient id="SVGID_6_" cx="36.2004" cy="897.136" r="0" gradientTransform="matrix(0.7071 -0.7071 -0.7071 -0.7071 649.8115 930.5161)" gradientUnits="userSpaceOnUse">
		<stop  offset="0" style="stop-color:#FFFFFF"/>
		<stop  offset="9.040742e-002" style="stop-color:#F9F9F9"/>
		<stop  offset="0.2168" style="stop-color:#E6E6E6"/>
		<stop  offset="0.3643" style="stop-color:#C9C9C9"/>
		<stop  offset="0.528" style="stop-color:#9F9F9F"/>
		<stop  offset="0.7048" style="stop-color:#6A6A6A"/>
		<stop  offset="0.8898" style="stop-color:#2A2A2A"/>
		<stop  offset="1" style="stop-color:#000000"/>
	</radialGradient>
	<polygon class="st13" points="41,270.6 41,270.6 41,270.6 	"/>
	
		<radialGradient id="SVGID_7_" cx="36.2004" cy="753.9797" r="0" gradientTransform="matrix(0.7071 -0.7071 -0.7071 -0.7071 649.8115 930.5161)" gradientUnits="userSpaceOnUse">
		<stop  offset="0" style="stop-color:#FFFFFF"/>
		<stop  offset="9.040742e-002" style="stop-color:#F9F9F9"/>
		<stop  offset="0.2168" style="stop-color:#E6E6E6"/>
		<stop  offset="0.3643" style="stop-color:#C9C9C9"/>
		<stop  offset="0.528" style="stop-color:#9F9F9F"/>
		<stop  offset="0.7048" style="stop-color:#6A6A6A"/>
		<stop  offset="0.8898" style="stop-color:#2A2A2A"/>
		<stop  offset="1" style="stop-color:#000000"/>
	</radialGradient>
	<path class="st14" d="M142.3,371.8L142.3,371.8L142.3,371.8z"/>
	
		<radialGradient id="SVGID_8_" cx="107.7785" cy="825.5579" r="0" gradientTransform="matrix(0.7071 -0.7071 -0.7071 -0.7071 649.8115 930.5161)" gradientUnits="userSpaceOnUse">
		<stop  offset="0" style="stop-color:#FFFFFF"/>
		<stop  offset="9.040742e-002" style="stop-color:#F9F9F9"/>
		<stop  offset="0.2168" style="stop-color:#E6E6E6"/>
		<stop  offset="0.3643" style="stop-color:#C9C9C9"/>
		<stop  offset="0.528" style="stop-color:#9F9F9F"/>
		<stop  offset="0.7048" style="stop-color:#6A6A6A"/>
		<stop  offset="0.8898" style="stop-color:#2A2A2A"/>
		<stop  offset="1" style="stop-color:#000000"/>
	</radialGradient>
	<path class="st15" d="M142.3,270.6L142.3,270.6L142.3,270.6z"/>
	
		<radialGradient id="SVGID_9_" cx="36.2004" cy="875.7665" r="0" gradientTransform="matrix(0.7071 -0.7071 -0.7071 -0.7071 649.8115 930.5161)" gradientUnits="userSpaceOnUse">
		<stop  offset="0" style="stop-color:#FFFFFF"/>
		<stop  offset="9.040742e-002" style="stop-color:#F9F9F9"/>
		<stop  offset="0.2168" style="stop-color:#E6E6E6"/>
		<stop  offset="0.3643" style="stop-color:#C9C9C9"/>
		<stop  offset="0.528" style="stop-color:#9F9F9F"/>
		<stop  offset="0.7048" style="stop-color:#6A6A6A"/>
		<stop  offset="0.8898" style="stop-color:#2A2A2A"/>
		<stop  offset="1" style="stop-color:#000000"/>
	</radialGradient>
	<path class="st16" d="M56.2,285.7L56.2,285.7L56.2,285.7z"/>
	
		<radialGradient id="SVGID_10_" cx="-35.3777" cy="825.5579" r="0" gradientTransform="matrix(0.7071 -0.7071 -0.7071 -0.7071 649.8115 930.5161)" gradientUnits="userSpaceOnUse">
		<stop  offset="0" style="stop-color:#FFFFFF"/>
		<stop  offset="9.040742e-002" style="stop-color:#F9F9F9"/>
		<stop  offset="0.2168" style="stop-color:#E6E6E6"/>
		<stop  offset="0.3643" style="stop-color:#C9C9C9"/>
		<stop  offset="0.528" style="stop-color:#9F9F9F"/>
		<stop  offset="0.7048" style="stop-color:#6A6A6A"/>
		<stop  offset="0.8898" style="stop-color:#2A2A2A"/>
		<stop  offset="1" style="stop-color:#000000"/>
	</radialGradient>
	<polygon class="st17" points="41,371.8 41,371.8 41,371.8 	"/>
	<polygon class="st9" points="41,270.6 41,270.6 41,270.6 41,300.2 56.2,285.7 56.2,285.7 56.2,285.7 	"/>
	<polygon class="st18" points="41,371.8 70.7,371.8 56.2,356.1 	"/>
	<polygon class="st3" points="56.2,356.1 56.2,356.1 56.2,356.1 41,342.1 41,371.8 41,371.8 41,371.8 	"/>
	<polygon class="st10" points="41,300.2 41.4,321.1 56.2,285.7 	"/>
	<polygon class="st19" points="70.7,270.6 56.2,285.7 91.5,271.1 	"/>
	<polygon class="st3" points="70.7,371.8 91.3,371 56.2,356.1 	"/>
	<polygon class="st10" points="41,342.1 56.2,356.1 48,338.2 41.4,321.1 	"/>
	<polygon class="st20" points="56.2,285.7 70.7,270.6 41,270.6 	"/>
	<polygon class="st21" points="128,288.5 141.5,321.1 142.3,300.2 128.8,287.8 	"/>
	<polygon class="st22" points="137.9,372 112.6,371.8 91.6,392.6 138.8,373 	"/>
	<polygon class="st23" points="143.5,273.8 142.3,274.8 142.3,300.2 163.1,321.1 	"/>
	<polygon class="st3" points="124.8,358.1 112.6,371.8 137.9,372 	"/>
	<polygon class="st24" points="128.8,287.8 142.3,300.2 142.3,274.8 	"/>
	<polygon class="st25" points="124.1,357.5 108.8,363.5 91.3,371 112.6,371.8 124.8,358.1 	"/>
	<polygon class="st1" points="124.6,284.1 112.6,270.6 91.5,271.1 124.1,284.6 	"/>
	<polygon class="st26" points="129,353.5 142.3,342.1 141.5,321.1 128.4,352.8 	"/>
	<polygon class="st1" points="138.9,270.4 112.6,270.6 124.6,284.1 	"/>
	<polygon class="st23" points="143.5,368.6 163.1,321.1 142.3,342.1 142.4,367.6 	"/>
	<polygon class="st20" points="139.7,269.5 117.8,260.3 91.6,249.6 112.6,270.6 138.9,270.4 	"/>
	<polygon class="st24" points="142.4,367.6 142.3,342.1 129,353.5 	"/>
</g>
<g>
	<path class="st23" d="M185.5,298.5c3.6-3.7,8.3-5.6,14-5.6c7.6,0,13.1,2.5,16.6,7.5c1.9,2.8,2.9,5.6,3.1,8.6h-9.5
		c-0.7-2.1-1.3-3.9-2.3-4.9c-1.7-2-4.1-2.9-7.5-2.9c-3.3,0-6,1.3-8,4.1c-2,2.8-2.9,6.7-2.9,11.9c0,5.1,1.1,9,3.1,11.5
		c2,2.5,4.7,3.9,7.9,3.9c3.2,0,5.7-1.1,7.5-3.3c0.9-1.2,1.7-2.9,2.4-5.3h9.5c-0.8,4.9-2.9,9-6.3,12.2c-3.3,3.1-7.6,4.7-12.8,4.7
		c-6.6,0-11.6-2.1-15.2-6.3c-3.7-4.3-5.6-10-5.6-17.4C179,308.9,181.2,302.8,185.5,298.5z"/>
	<path class="st23" d="M237.2,318.7c1.6-0.3,2.8-0.4,3.6-0.8c1.3-0.5,1.9-1.3,1.9-2.5c0-1.3-0.5-2.4-1.5-2.9
		c-0.9-0.5-2.4-0.8-4.3-0.8c-2.1,0-3.6,0.5-4.5,1.6c-0.7,0.8-1.1,1.9-1.2,3.1h-8.6c0.1-2.9,1.1-5.3,2.5-7.4
		c2.4-2.9,6.4-4.5,12.2-4.5c3.7,0,7.1,0.8,9.9,2.3c2.9,1.5,4.4,4.3,4.4,8.3v15.5c0,1.1,0,2.4,0,3.9c0,1.2,0.3,2,0.5,2.4
		c0.3,0.4,0.7,0.8,1.3,1.1v1.3h-9.8c-0.3-0.7-0.4-1.3-0.5-1.9c-0.1-0.7-0.1-1.3-0.3-2c-1.2,1.3-2.7,2.4-4.3,3.3
		c-1.9,1.1-4.1,1.6-6.6,1.6c-3.1,0-5.6-0.9-7.6-2.7c-2-1.7-3.1-4.3-3.1-7.5c0-4.1,1.6-7.2,4.8-9.1c1.7-1.1,4.4-1.7,7.9-2.1
		L237.2,318.7z M242.6,322.8c-0.5,0.4-1.2,0.7-1.7,0.8c-0.5,0.3-1.3,0.4-2.4,0.7l-2,0.4c-1.9,0.3-3.2,0.8-4.1,1.2
		c-1.3,0.8-2.1,2-2.1,3.7c0,1.5,0.4,2.7,1.3,3.3c0.8,0.7,1.9,1.1,3.1,1.1c2,0,3.7-0.5,5.3-1.7c1.6-1.1,2.5-3.2,2.5-6.2v-3.3H242.6z"
		/>
	<path class="st23" d="M304.7,319.6c-2.7,2.3-6.4,3.3-11.4,3.3h-9.5v16.4h-9.5v-45.6h19.5c4.5,0,8.2,1.2,10.8,3.5c2.7,2.4,4,6,4,11
		C308.8,313.6,307.4,317.4,304.7,319.6z M297.4,303.2c-1.2-1.1-2.9-1.5-5.1-1.5h-8.6v13.4h8.6c2.1,0,3.9-0.5,5.1-1.6
		c1.2-1.1,1.9-2.8,1.9-5.2S298.6,304.3,297.4,303.2z"/>
	<path class="st23" d="M340.4,335.3c-2.8,3.5-7.2,5.2-13,5.2s-10.2-1.7-13-5.2c-2.8-3.5-4.3-7.8-4.3-12.7c0-4.8,1.5-9.1,4.3-12.7
		c2.8-3.6,7.2-5.3,13-5.3s10.2,1.7,13,5.3c2.8,3.6,4.3,7.8,4.3,12.7S343.4,331.7,340.4,335.3z M333.5,330.3c1.3-1.9,2-4.4,2-7.8
		c0-3.3-0.7-6-2-7.8c-1.3-1.9-3.3-2.7-5.9-2.7c-2.5,0-4.5,0.9-6,2.7c-1.3,1.9-2.1,4.4-2.1,7.8c0,3.3,0.7,6,2.1,7.8
		c1.5,1.7,3.3,2.8,6,2.8C330.1,333.1,332,332.2,333.5,330.3z"/>
	<path class="st23" d="M368.9,345.8h1.1c0.8,0,1.7,0,2.4-0.1c0.8-0.1,1.5-0.4,2-0.7c0.5-0.4,0.9-1.1,1.5-2.1c0.4-1.1,0.7-1.7,0.5-2
		l-12.3-35.3h9.8l7.4,24.9l7-24.9h9.4L386,338.8c-2.3,6.4-4,10.3-5.3,11.9s-3.9,2.3-7.8,2.3c-0.8,0-1.5,0-1.9,0
		c-0.5,0-1.2,0-2.1-0.1V345.8z"/>
	<g>
		<polygon class="st23" points="258.5,298.2 258.5,339.3 267.3,339.3 267.3,293.8 267,293.8 		"/>
	</g>
	<g>
		<polygon class="st23" points="350.9,298.2 350.9,339.3 359.7,339.3 359.7,293.8 359.4,293.8 		"/>
	</g>
	<path class="st27" d="M402.2,293h20.6c4,0,7.4,1.2,9.9,3.5c2.5,2.3,3.7,5.6,3.7,9.8c0,3.6-1.1,6.7-3.3,9.4c-2.3,2.7-5.6,4-10.3,4
		h-14.4v19.5h-6.3V293H402.2z M426.4,299.4c-1.3-0.7-3.2-0.9-5.6-0.9h-12.3v15.9h12.3c2.8,0,5.1-0.5,6.8-1.7
		c1.7-1.2,2.5-3.3,2.5-6.3C430.2,302.9,428.8,300.6,426.4,299.4z"/>
	<path class="st27" d="M463.2,308.9c2.9,2.9,4.4,7.1,4.4,12.7c0,5.3-1.3,9.9-3.9,13.4c-2.7,3.5-6.7,5.3-12.2,5.3
		c-4.5,0-8.3-1.6-11-4.7c-2.7-3.1-4-7.4-4-12.6c0-5.6,1.5-10.2,4.3-13.5c2.8-3.3,6.7-4.9,11.5-4.9
		C456.6,304.5,460.3,306,463.2,308.9z M459.7,331.3c1.3-2.8,2-6,2-9.5c0-3.1-0.5-5.6-1.5-7.6c-1.6-3.1-4.3-4.7-8.2-4.7
		c-3.3,0-5.9,1.3-7.5,3.9c-1.6,2.7-2.3,5.7-2.3,9.5c0,3.6,0.8,6.6,2.3,9c1.6,2.4,4,3.6,7.4,3.6C455.7,335.4,458.2,334.1,459.7,331.3
		z"/>
	<path class="st27" d="M472.2,305.6h5.6v4.7c1.3-1.6,2.5-2.8,3.6-3.6c1.9-1.3,4-1.9,6.3-1.9c2.7,0,4.8,0.7,6.4,2
		c0.9,0.8,1.7,1.9,2.5,3.3c1.2-1.7,2.7-3.1,4.4-4c1.7-0.9,3.6-1.3,5.7-1.3c4.5,0,7.6,1.6,9.2,4.9c0.9,1.7,1.3,4.1,1.3,7.1v22.3h-5.9
		v-23.4c0-2.3-0.5-3.7-1.7-4.5c-1.2-0.8-2.5-1.2-4.1-1.2c-2.3,0-4.1,0.8-5.7,2.3c-1.6,1.5-2.4,4-2.4,7.5v19.5h-5.7v-22.1
		c0-2.3-0.3-3.9-0.8-4.9c-0.8-1.6-2.4-2.4-4.8-2.4c-2.1,0-4,0.8-5.7,2.5c-1.7,1.7-2.7,4.7-2.7,9v17.8H472v-33.6H472.2z"/>
	<path class="st27" d="M547.6,308.9c2.9,2.9,4.4,7.1,4.4,12.7c0,5.3-1.3,9.9-3.9,13.4c-2.7,3.5-6.7,5.3-12.2,5.3
		c-4.5,0-8.3-1.6-11-4.7s-4-7.4-4-12.6c0-5.6,1.5-10.2,4.3-13.5c2.8-3.3,6.7-4.9,11.5-4.9C541,304.5,544.6,306,547.6,308.9z
		 M544.1,331.3c1.3-2.8,2-6,2-9.5c0-3.1-0.5-5.6-1.5-7.6c-1.6-3.1-4.3-4.7-8.2-4.7c-3.3,0-5.9,1.3-7.5,3.9c-1.6,2.7-2.3,5.7-2.3,9.5
		c0,3.6,0.8,6.6,2.3,9c1.6,2.4,4,3.6,7.4,3.6C540.2,335.4,542.8,334.1,544.1,331.3z"/>
	<path class="st27" d="M556.7,305.6h5.3v4.7c1.6-2,3.2-3.3,5.1-4.3s3.7-1.3,5.9-1.3c4.8,0,8,1.6,9.6,4.9c0.9,1.9,1.3,4.4,1.3,7.8
		v21.5h-5.7V318c0-2-0.3-3.7-0.9-4.9c-1.1-2.1-2.8-3.1-5.5-3.1c-1.3,0-2.4,0.1-3.3,0.4c-1.6,0.4-2.9,1.3-4,2.8
		c-0.9,1.1-1.6,2.3-1.9,3.5c-0.3,1.2-0.4,2.8-0.4,5.1v17.5h-5.5V305.6z"/>
	<path class="st27" d="M607.9,318.8c1.3-0.1,2.1-0.7,2.5-1.6c0.3-0.5,0.4-1.2,0.4-2.1c0-1.9-0.7-3.3-2-4.1c-1.3-0.8-3.3-1.3-5.9-1.3
		c-2.9,0-5.1,0.8-6.3,2.4c-0.7,0.9-1.1,2.1-1.3,3.9h-5.2c0.1-4.1,1.5-7.1,4-8.7c2.5-1.6,5.6-2.4,9-2.4c3.9,0,7.1,0.8,9.6,2.3
		c2.4,1.5,3.6,3.9,3.6,7.1v19.4c0,0.5,0.1,1.1,0.4,1.5s0.8,0.5,1.5,0.5c0.3,0,0.5,0,0.8,0c0.3,0,0.7-0.1,1.1-0.1v4.1
		c-0.9,0.3-1.6,0.4-2,0.5c-0.4,0.1-1.1,0.1-1.9,0.1c-2,0-3.3-0.7-4.3-2c-0.4-0.7-0.8-1.7-0.9-3.1c-1.2,1.5-2.8,2.8-4.9,3.9
		s-4.5,1.6-7.1,1.6c-3.1,0-5.6-0.9-7.6-2.8c-2-1.9-2.9-4.3-2.9-7.1c0-3.1,0.9-5.5,2.9-7.2c2-1.7,4.5-2.8,7.6-3.2L607.9,318.8z
		 M596,334.1c1.2,0.9,2.5,1.5,4.3,1.5c2,0,3.9-0.4,5.7-1.3c3.1-1.5,4.7-4,4.7-7.5v-4.5c-0.7,0.4-1.6,0.8-2.7,1.1
		c-1.1,0.3-2.1,0.5-3.2,0.7l-3.3,0.4c-2,0.3-3.6,0.7-4.5,1.3c-1.7,0.9-2.7,2.5-2.7,4.7C594.2,331.8,594.8,333.1,596,334.1z"/>
</g>
<polygon class="st28" points="414.9,300.9 463.2,300.9 463.2,300.9 "/>
</svg>
