<?xml version="1.0" encoding="UTF-8" standalone="no"?>
<svg xmlns:rdf="http://www.w3.org/1999/02/22-rdf-syntax-ns#" xmlns="http://www.w3.org/2000/svg" xml:space="preserve" height="75.21" viewBox="0 0 262.96854 75.209504" width="262.97" version="1.1" xmlns:cc="http://creativecommons.org/ns#" xmlns:dc="http://purl.org/dc/elements/1.1/"><g transform="matrix(1.25 0 0 -1.25 -246.25 533.1)"><g><path d="m24.916 1.0098c-12.526 0-22.791 8.5644-22.791 8.5644v52.852c20.522 7.63 32.39-5.75 46.152 0v-52.852c0 0.0002-10.835-8.5642-23.361-8.5642zm14.742 62.826c-2.852 0.068-6.403 0.554-10.699 1.824-10.545 3.115-21.087 2.466-27.969-0.832 0.00023 0 6.7122 7.263 24.285 4.338 8.73-1.454 13.399-4.947 23.551-3.605 0 0-2.893-1.875-9.168-1.725zm0 4.363c-2.852 0.069-6.403 0.557-10.699 1.828-10.545 3.114-21.087 2.448-27.969-0.828 0.00023 0 6.7122 7.248 24.285 4.326 8.73-1.458 13.399-4.947 23.551-3.605 0 0-2.893-1.873-9.168-1.721z" transform="matrix(.8 0 0 -.8 197 426.48)" fill="#043927"/><path d="m80.248 13.475c-0.259 0-0.425 0.281-0.732 1.037l-6.555 16.384c-0.514 1.308-1.014 2.209-2.217 2.35-0.204 0.031-0.573 0.055-0.805 0.055-0.203 0-0.308 0.058-0.308 0.211 0 0.206 0.158 0.265 0.492 0.265 1.354 0 2.795-0.084 3.078-0.084 0.814 0 1.938 0.084 2.772 0.084 0.28 0 0.435-0.059 0.435-0.265 0-0.153-0.072-0.211-0.385-0.211h-0.398c-0.799 0-1.035-0.341-1.035-0.803 0-0.311 0.123-0.942 0.381-1.602l1.416-3.724c0.05-0.157 0.109-0.207 0.234-0.207h5.817c0.132 0 0.206 0.049 0.263 0.181l2.092 5.53c0.124 0.321-0.061 0.552-0.244 0.601-0.252 0.025-0.358 0.082-0.358 0.235 0 0.181 0.309 0.182 0.786 0.207 2.081 0.058 3.988 0.058 4.919 0.058 0.967 0 1.209-0.059 1.209-0.265 0-0.184-0.13-0.211-0.337-0.211-0.306 0-0.71-0.025-1.104-0.106-0.546-0.134-1.302-0.502-2.289-2.84-1.675-3.964-5.849-14.618-6.473-16.043-0.263-0.608-0.422-0.837-0.654-0.837zm58.582 0c-0.26 0-0.42 0.281-0.72 1.037l-6.56 16.384c-0.41 1.037-0.82 1.809-1.56 2.159-0.54-0.186-1.33-0.577-2.32-1.6-1.54-1.625-3.35-3.939-5.67-6.873 2.64-2.14 3.45-3.916 3.45-5.848 0-1.752-1.05-3.071-1.79-3.562-1.4-0.969-3.15-1.135-4.79-1.135-0.81 0-2.79 0.082-3.68 0.082-0.54 0-2.19-0.082-3.57-0.082-0.4 0-0.58 0.06-0.58 0.233 0 0.183 0.16 0.242 0.45 0.242 0.36 0 0.8 0.027 1.01 0.074 0.86 0.186 1.06 0.602 1.12 1.492 0.06 0.842 0.06 1.562 0.06 5.537v4.58c0 2.417 0 4.472-0.13 5.567-0.11 0.749-0.24 1.341-0.77 1.433-0.21 0.05-0.54 0.106-0.93 0.106-0.32 0-0.42 0.074-0.42 0.211 0 0.181 0.18 0.265 0.53 0.265 1.04 0 2.69-0.084 3.18-0.084 0.39 0 2.32 0.084 3.83 0.084 0.34 0 0.52-0.084 0.52-0.265 0-0.137-0.09-0.211-0.31-0.211-0.31 0-0.89-0.056-1.27-0.106-0.79-0.092-0.95-0.684-1.03-1.433-0.12-1.095-0.12-3.15-0.12-5.582v-0.366c0-0.147 0.08-0.209 0.2-0.209l2.27 0.061c0.19 0 0.34 0.017 0.47 0.184 0.35 0.379 1.55 2.153 2.59 3.591 1.46 2.015 2.45 3.235 3.57 3.836 0.68 0.369 1.33 0.5 2.79 0.5h0.05 2.43c0.18 0 0.3-0.021 0.39-0.074 0.06-0.002 0.24-0.01 0.27-0.01 0.8 0 1.94 0.084 2.76 0.084 0.29 0 0.44-0.059 0.44-0.265 0-0.153-0.07-0.211-0.38-0.211h-0.4c-0.8 0-1.04-0.341-1.04-0.803 0-0.311 0.13-0.942 0.39-1.602l1.42-3.724c0.04-0.157 0.09-0.207 0.23-0.207h5.82c0.13 0 0.2 0.049 0.26 0.181l2.08 5.53c0.13 0.321-0.05 0.552-0.24 0.601-0.25 0.025-0.36 0.082-0.36 0.235 0 0.181 0.31 0.182 0.78 0.207 2.09 0.058 3.99 0.058 4.93 0.058 0.97 0 1.21-0.059 1.21-0.265 0-0.184-0.13-0.211-0.34-0.211-0.32 0-0.7-0.025-1.1-0.106-0.54-0.134-1.3-0.502-2.29-2.84-1.67-3.964-5.85-14.618-6.48-16.043-0.25-0.608-0.42-0.837-0.65-0.837zm16.31 0c-0.21 0-0.36 0.229-0.44 0.671l-2.58 17.012c-0.14 0.886-0.34 1.903-1.07 2.069-0.4 0.074-0.58 0.074-0.79 0.074-0.26 0-0.41 0.059-0.41 0.176 0 0.242 0.2 0.3 0.46 0.3 0.84 0 2.09-0.084 2.59-0.084 0.47 0 1.65 0.084 2.75 0.084 0.37 0 0.62-0.058 0.62-0.3 0-0.117-0.19-0.176-0.39-0.176-0.27 0-0.64-0.025-1.09-0.121-0.45-0.119-0.8-0.342-0.8-0.852 0-0.417 0.03-0.748 0.09-1.217l1.34-10.386h0.11c0.92 1.959 2.49 5.246 2.72 5.798 0.31 0.723 2.37 4.72 3.01 5.92 0.41 0.783 0.67 1.307 0.9 1.307 0.25 0 0.37-0.237 0.97-1.467l5.69-11.849h0.11l1.56 11.476c0.1 0.731 0.02 1.086-0.13 1.133-0.18 0.074-0.29 0.153-0.29 0.285 0 0.148 0.15 0.243 0.76 0.283 1.04 0.083 4.65 0.166 5.3 0.166 0.37 0 0.67-0.083 0.67-0.3 0-0.148-0.17-0.176-0.42-0.176-0.33 0-0.86-0.025-1.61-0.258-0.78-0.233-1.05-0.998-1.28-2.639l-2.38-16.134c-0.07-0.544-0.24-0.795-0.47-0.795s-0.36 0.203-0.57 0.623l-7.1 14.898-7.13-14.726c-0.33-0.667-0.49-0.795-0.7-0.795zm43.8 0.129c-0.27 0-0.35 0.365-0.35 0.888l-0.23 15.434c-0.02 2.279-0.13 3.034-0.81 3.254-0.37 0.096-0.83 0.121-1.17 0.121-0.26 0-0.42 0.058-0.42 0.211 0 0.238 0.24 0.265 0.57 0.265 1.36 0 2.58-0.084 2.81-0.084 0.5 0 1.55 0.084 3.24 0.084 0.37 0 0.61-0.059 0.61-0.265 0-0.153-0.17-0.211-0.45-0.211-0.42 0-0.92-0.025-1.36-0.184-0.51-0.182-0.86-0.854-0.91-2.888l-0.28-10.958h0.07c0.47 0.49 3.37 3.745 6.21 6.579 2.72 2.68 6.05 6.094 7.7 7.662 0.29 0.28 0.6 0.574 0.88 0.574 0.24 0 0.35-0.232 0.35-0.809l0.29-16.466c0.02-1.456 0.24-2.007 0.97-2.225 0.31-0.074 0.51-0.074 0.78-0.074 0.31 0 0.47-0.074 0.47-0.242 0-0.2-0.26-0.233-0.61-0.233-1.28 0-2.26 0.082-2.56 0.082-0.54 0-1.79-0.082-3.15-0.082-0.4 0-0.67 0.033-0.67 0.233 0 0.168 0.09 0.242 0.4 0.242 0.38 0 1 0 1.39 0.16 0.62 0.257 0.87 0.746 0.89 2.346l0.27 11.728h-0.14c-0.44-0.424-3.97-4.197-5.75-5.963-3.8-3.784-7.77-8.04-8.09-8.379-0.43-0.467-0.67-0.8-0.95-0.8zm-133.65 0.074c-3.626 0-6.029 2.059-6.029 4.935 0 2.111 0.994 3.937 3.863 6.178l1.197 0.939c2.171 1.701 2.571 2.899 2.571 4.182 0 1.382-1.164 2.967-3.5 2.967-1.625 0-3.168-0.692-3.737-2.619-0.133-0.456-0.23-1.003-0.23-1.34 0-0.22-0.037-0.438-0.268-0.438-0.207 0-0.281 0.281-0.314 0.664-0.023 0.424-0.133 1.983-0.133 3.434 0 0.563 0.079 0.697 0.5 0.881 1.121 0.501 2.297 0.682 3.816 0.682 1.382 0 2.844-0.241 4.143-1.082 1.885-1.228 2.459-3.022 2.459-4.532 0-2.481-1.129-4.282-4.287-6.662l-0.725-0.535c-2.173-1.647-2.769-2.564-2.769-3.762 0-1.57 1.179-2.701 3.105-2.701 1.701 0 2.459 0.794 2.85 1.285 0.549 0.68 0.668 1.486 0.668 1.733 0 0.309 0.079 0.465 0.261 0.465 0.218 0 0.293-0.216 0.293-0.782 0-2.032 0.112-2.797 0.112-3.131 0-0.186-0.146-0.268-0.369-0.32-0.687-0.182-1.782-0.441-3.477-0.441zm35.697 0c-3.884 0-6.359 1.042-8.242 2.765-2.505 2.291-3.059 5.383-3.059 7.155 0 2.522 0.68 5.458 3.243 7.695 2.371 2.066 5.379 2.85 8.958 2.85 1.67 0 3.64-0.181 4.68-0.596 0.45-0.187 0.56-0.319 0.68-0.768 0.26-0.884 0.58-3.159 0.58-3.467 0-0.206-0.05-0.392-0.23-0.392-0.21 0-0.26 0.102-0.35 0.521-0.09 0.472-0.44 1.226-0.88 1.717-1.03 1.212-2.45 1.473-4.77 1.473-3.509 0-8.229-3.082-8.229-9.297 0-2.533 0.497-5.016 2.406-6.766 1.146-1.029 2.639-1.617 4.903-1.617 2.41 0 4.43 0.713 5.3 1.617 0.65 0.684 0.99 1.603 1.02 2.411 0 0.357 0.05 0.576 0.25 0.576 0.24 0 0.29-0.22 0.32-0.606 0.06-0.525 0.03-1.967 0.08-2.812 0.05-0.916 0.13-1.227 0.13-1.449 0-0.149-0.1-0.284-0.39-0.301-0.78-0.074-1.62-0.317-2.61-0.449-1.2-0.148-2.17-0.26-3.79-0.26zm120.46 0c-0.16 0-0.23 0.16-0.31 0.494-0.05 0.216-0.55 2.583-0.55 2.996 0 0.301 0.05 0.424 0.24 0.424 0.15 0 0.23-0.105 0.29-0.305 0.05-0.218 0.18-0.532 0.44-0.918 0.38-0.583 1.02-0.706 2.53-0.762l3.88-0.103v10.691c0 2.417 0 4.472-0.12 5.567-0.08 0.749-0.23 1.341-0.76 1.433-0.24 0.05-0.55 0.106-0.94 0.106-0.31 0-0.42 0.074-0.42 0.211 0 0.181 0.18 0.265 0.52 0.265 1.05 0 2.69-0.084 3.29-0.084 0.73 0 2.38 0.084 4.09 0.084 0.3 0 0.5-0.084 0.5-0.265 0-0.137-0.13-0.211-0.42-0.211-0.38 0-0.96-0.056-1.32-0.106-0.78-0.092-0.94-0.683-1.02-1.396-0.13-1.131-0.13-3.187-0.13-5.604v-10.691l3.29 0.08c2.32 0.052 3.03 0.786 3.08 1.459l0.02 0.283c0.04 0.399 0.09 0.528 0.29 0.528 0.16 0 0.2-0.152 0.24-0.42 0-0.678 0.07-2.482 0.07-3.03 0-0.381-0.02-0.549-0.2-0.549-0.11 0-0.31 0.06-0.72 0.129-0.38 0.052-0.95 0.135-1.78 0.135h-10.34c-0.86 0-1.86-0.049-2.61-0.135-0.66-0.047-0.92-0.306-1.13-0.306zm29.96 0c-7.82 0-10.78 5.774-10.78 10.236 0 4.615 3.04 10.229 10.53 10.229 6.62 0 10.8-4.727 10.8-10.702 0-5.972-4.05-9.763-10.55-9.763zm-59.92 0.16c-0.13 0-0.29 0.078-0.41 0.1-0.21 0.047-0.63 0.099-1.12 0.16-0.5 0.022-5.69 0.021-6.53 0.021-0.36 0-0.96-0.022-1.64-0.049-0.65 0-1.41-0.033-2.11-0.033-0.4 0-0.58 0.06-0.58 0.233 0 0.183 0.15 0.242 0.45 0.242 0.35 0 0.81 0.027 1.01 0.074 0.86 0.186 1.07 0.602 1.13 1.492 0.05 0.842 0.05 1.562 0.05 5.537v4.58c0 2.417 0 4.472-0.13 5.567-0.11 0.749-0.24 1.341-0.76 1.433-0.24 0.05-0.55 0.106-0.95 0.106-0.31 0-0.4 0.074-0.4 0.211 0 0.181 0.18 0.265 0.51 0.265 0.53 0 1.21-0.058 1.8-0.058 0.63-0.025 1.2-0.026 1.49-0.026 0.78 0 1.59 0.026 2.71 0.084 1.12 0.016 2.57 0.077 4.52 0.077 0.99 0 1.24-0.002 1.4-0.674 0.15-0.539 0.35-2.301 0.35-2.905 0-0.263 0-0.472-0.21-0.472-0.18 0-0.23 0.109-0.28 0.394-0.19 1.073-0.5 1.632-1.18 1.942-0.68 0.305-1.78 0.304-2.46 0.304-2.66 0-3.07-0.397-3.12-2.183-0.04-0.763 0-3.169 0-4.065v-2.056c0-0.151 0.02-0.256 0.16-0.256 0.62 0 3.2 0.032 3.7 0.086 0.96 0.096 1.33 0.479 1.45 1.013 0.09 0.332 0.09 0.685 0.11 0.932 0 0.135 0.06 0.231 0.24 0.231 0.23 0 0.23-0.282 0.23-0.479 0-0.188 0.07-1.234 0.11-1.752 0.1-1.342 0.2-1.75 0.2-1.914 0-0.15-0.07-0.199-0.18-0.199-0.13 0-0.24 0.126-0.42 0.33-0.23 0.258-0.62 0.339-1.25 0.4-0.6 0.043-3.59 0.041-4.17 0.041-0.16 0-0.18-0.102-0.18-0.277v-6.611c0-0.18 0.04-0.264 0.18-0.264 0.52 0 3.26 0.056 3.7 0.117 1.31 0.146 1.57 0.462 1.74 0.936 0.14 0.314 0.16 0.762 0.16 0.937 0 0.229 0.06 0.367 0.24 0.367s0.24-0.149 0.25-0.291c0.06-0.318 0.12-1.458 0.15-1.718 0.07-1.207 0.2-1.516 0.2-1.698 0-0.133-0.02-0.232-0.16-0.232zm59.16 1.092c4.28 0 7.64 3.625 7.64 9.478 0 7.536-4.22 8.43-6.04 8.43-5.01 0-8.01-4.309-8.01-9.74 0-6.492 3.42-8.168 6.41-8.168zm-132.27 0.34c1.53 0 3.99 1.061 3.99 4.779 0 2.135-0.77 3.336-1.55 3.92-0.47 0.332-0.8 0.439-1.85 0.439-0.64 0-1.43-0.085-1.98-0.269-0.19-0.075-0.23-0.17-0.23-0.455v-7.946c0-0.199 0.04-0.319 0.23-0.369 0.26-0.074 0.73-0.099 1.39-0.099zm-38.778 3.55c0.069 0 0.105 0.13 0.125 0.231l2.347 6.445c0.02 0.085 0 0.17-0.129 0.17h-4.806c-0.094 0-0.132-0.085-0.094-0.187l2.394-6.428c0.026-0.101 0.078-0.231 0.163-0.231zm58.588 0c0.07 0 0.09 0.13 0.12 0.231l2.36 6.445c0.01 0.085 0 0.17-0.14 0.17h-4.81c-0.1 0-0.13-0.085-0.1-0.187l2.41-6.428c0.02-0.101 0.08-0.231 0.16-0.231zm-40.2 24.221c-0.256 0-0.412 0.297-0.732 1.047l-6.545 16.391c-0.528 1.3-1.024 2.19-2.221 2.351-0.207 0.025-0.565 0.049-0.808 0.049-0.21 0-0.309 0.05-0.309 0.207 0 0.211 0.154 0.256 0.494 0.256 1.359 0 2.794-0.072 3.086-0.072 0.793 0 1.922 0.072 2.762 0.072 0.284 0 0.447-0.045 0.447-0.256 0-0.157-0.084-0.207-0.406-0.207h-0.387c-0.81 0-1.037-0.333-1.037-0.807 0-0.305 0.126-0.943 0.389-1.593l1.41-3.729c0.05-0.162 0.1-0.213 0.226-0.213h5.821c0.14 0 0.21 0.052 0.26 0.18l2.09 5.537c0.14 0.309-0.05 0.543-0.23 0.601-0.26 0.025-0.37 0.074-0.37 0.231 0 0.184 0.32 0.184 0.79 0.211 2.08 0.045 3.99 0.045 4.93 0.045 0.96 0 1.2-0.045 1.2-0.256 0-0.182-0.14-0.207-0.33-0.207-0.33 0-0.72-0.023-1.11-0.1-0.54-0.137-1.29-0.499-2.3-2.841-1.66-3.971-5.843-14.616-6.464-16.059-0.263-0.599-0.418-0.838-0.656-0.838zm-33.219 0.213c-3.629 0-6.023 2.067-6.023 4.93 0 2.115 0.984 3.949 3.857 6.183l1.198 0.951c2.164 1.683 2.566 2.883 2.566 4.162 0 1.382-1.152 2.985-3.498 2.985-1.622 0-3.155-0.699-3.736-2.635-0.125-0.442-0.231-0.993-0.231-1.332 0-0.215-0.024-0.443-0.259-0.443-0.21 0-0.298 0.274-0.323 0.675-0.017 0.416-0.133 1.99-0.133 3.415 0 0.581 0.088 0.709 0.506 0.89 1.119 0.512 2.292 0.676 3.809 0.676 1.377 0 2.839-0.231 4.152-1.07 1.88-1.227 2.442-3.01 2.442-4.534 0-2.472-1.118-4.291-4.27-6.656l-0.734-0.547c-2.17-1.649-2.762-2.554-2.762-3.765 0-1.569 1.172-2.682 3.104-2.682 1.69 0 2.459 0.779 2.841 1.279 0.552 0.675 0.676 1.484 0.676 1.717 0 0.316 0.088 0.475 0.264 0.475 0.213 0 0.283-0.213 0.283-0.789 0-2.035 0.105-2.784 0.105-3.125 0-0.184-0.133-0.256-0.361-0.305-0.679-0.188-1.781-0.455-3.473-0.455zm7.752 0c-0.164 0-0.234 0.154-0.314 0.504-0.053 0.197-0.555 2.577-0.555 2.992 0 0.285 0.062 0.42 0.246 0.42 0.153 0 0.232-0.101 0.288-0.318 0.046-0.207 0.171-0.515 0.441-0.914 0.388-0.561 1.009-0.701 2.525-0.75l3.897-0.108v10.701c0 2.401 0 4.465-0.137 5.567-0.077 0.749-0.224 1.322-0.756 1.431-0.239 0.052-0.551 0.1-0.937 0.1-0.311 0-0.416 0.084-0.416 0.207 0 0.184 0.181 0.256 0.515 0.256 1.052 0 2.696-0.072 3.293-0.072 0.728 0 2.379 0.072 4.094 0.072 0.288 0 0.496-0.072 0.496-0.256 0-0.123-0.127-0.207-0.41-0.207-0.397 0-0.968-0.048-1.33-0.1-0.784-0.109-0.949-0.682-1.025-1.416-0.126-1.117-0.126-3.181-0.126-5.582v-10.701l3.274 0.076c2.341 0.056 3.044 0.781 3.088 1.465l0.027 0.281c0.022 0.399 0.079 0.534 0.295 0.534 0.152 0 0.2-0.164 0.231-0.422 0-0.677 0.084-2.478 0.084-3.028 0-0.39-0.033-0.547-0.219-0.547-0.095 0-0.311 0.057-0.701 0.133-0.395 0.052-0.967 0.137-1.805 0.137h-10.332c-0.862 0-1.848-0.06-2.615-0.137-0.643-0.051-0.913-0.318-1.116-0.318zm35.107 0c-0.16 0-0.24 0.154-0.32 0.504-0.06 0.197-0.55 2.577-0.55 2.992 0 0.285 0.05 0.42 0.24 0.42 0.16 0 0.23-0.101 0.28-0.318 0.06-0.207 0.19-0.515 0.44-0.914 0.4-0.561 1.03-0.701 2.54-0.75l3.89-0.108v10.701c0 2.401 0 4.465-0.13 5.567-0.08 0.749-0.24 1.322-0.76 1.431-0.23 0.052-0.55 0.1-0.94 0.1-0.31 0-0.42 0.084-0.42 0.207 0 0.184 0.19 0.256 0.53 0.256 1.04 0 2.68-0.072 3.28-0.072 0.73 0 2.38 0.072 4.09 0.072 0.3 0 0.5-0.072 0.5-0.256 0-0.123-0.13-0.207-0.41-0.207-0.39 0-0.96-0.048-1.33-0.1-0.78-0.109-0.95-0.682-1.02-1.416-0.13-1.117-0.13-3.181-0.13-5.582v-10.701l3.28 0.076c2.33 0.056 3.03 0.781 3.08 1.465l0.03 0.281c0.03 0.399 0.08 0.534 0.29 0.534 0.15 0 0.21-0.164 0.23-0.422 0-0.677 0.08-2.478 0.08-3.028 0-0.39-0.01-0.547-0.2-0.547-0.11 0-0.32 0.057-0.71 0.133-0.39 0.052-0.96 0.137-1.8 0.137h-10.34c-0.86 0-1.84-0.06-2.6-0.137-0.66-0.051-0.91-0.318-1.12-0.318zm32.12 0.154c-0.12 0-0.29 0.087-0.42 0.112-0.21 0.051-0.63 0.104-1.12 0.16-0.49 0.029-5.69 0.029-6.54 0.029-0.35 0-0.95-0.029-1.63-0.061-0.66 0-1.41-0.025-2.12-0.025-0.39 0-0.56 0.056-0.56 0.24 0 0.176 0.15 0.225 0.43 0.225 0.37 0 0.81 0.036 1.02 0.086 0.87 0.182 1.06 0.599 1.12 1.478 0.06 0.837 0.06 1.569 0.06 5.537v4.592c0 2.401 0 4.465-0.13 5.567-0.11 0.749-0.24 1.322-0.76 1.431-0.23 0.052-0.55 0.1-0.94 0.1-0.31 0-0.41 0.084-0.41 0.207 0 0.184 0.17 0.256 0.52 0.256 0.51 0 1.19-0.045 1.79-0.045 0.64-0.027 1.2-0.027 1.49-0.027 0.79 0 1.59 0.027 2.72 0.072 1.12 0.036 2.55 0.084 4.51 0.084 0.99 0 1.22 0 1.41-0.68 0.13-0.52 0.34-2.299 0.34-2.9 0-0.258 0-0.457-0.21-0.457-0.18 0-0.23 0.092-0.29 0.381-0.18 1.077-0.49 1.626-1.17 1.933-0.67 0.308-1.78 0.309-2.45 0.309-2.66 0-3.09-0.385-3.13-2.182-0.03-0.767 0-3.153 0-4.049v-2.064c0-0.148 0.02-0.258 0.16-0.258 0.62 0 3.2 0.025 3.7 0.074 0.97 0.104 1.34 0.5 1.46 1.018 0.08 0.332 0.08 0.68 0.1 0.931 0 0.153 0.05 0.252 0.24 0.252 0.23 0 0.23-0.303 0.23-0.504 0-0.181 0.08-1.212 0.1-1.746 0.11-1.332 0.21-1.749 0.21-1.9 0-0.159-0.08-0.215-0.18-0.215-0.13 0-0.23 0.131-0.41 0.342-0.24 0.258-0.63 0.342-1.25 0.387-0.6 0.053-3.61 0.052-4.18 0.052-0.16 0-0.18-0.097-0.18-0.283v-6.605c0-0.182 0.04-0.256 0.18-0.256 0.52 0 3.27 0.057 3.7 0.098 1.32 0.157 1.57 0.468 1.75 0.941 0.13 0.314 0.16 0.757 0.16 0.941 0 0.234 0.05 0.366 0.23 0.366s0.24-0.159 0.26-0.282c0.06-0.319 0.1-1.468 0.13-1.715 0.08-1.208 0.21-1.525 0.21-1.707 0-0.128-0.02-0.24-0.15-0.24zm-42.41 4.996c0.079 0 0.112 0.132 0.131 0.233l2.355 6.445c0.017 0.079 0 0.148-0.133 0.148h-4.806c-0.106 0-0.125-0.069-0.106-0.179l2.403-6.414c0.017-0.101 0.075-0.233 0.156-0.233z" transform="matrix(.8 0 0 -.8 197 426.48)"/><path d="m26.9 9.4043c-2.7446-0.00988-5.6429 1.5743-7.1582 3.8535-1.5428 0.82332-2.6253 1.8312-3.3945 2.7949-3.4666 4.3388-3.3617 10.361 2.6309 16.086 3.7398 3.5693 8.2373 8.5781 8.4922 11.762 0.09088 1.1218 0.36248 4.597-4.1641 4.6621-2.0215 0.02687-4.6484-1.791-4.6484-1.791s2.4446 2.9604 6.1016 2.7812c3.0175-0.16602 5.1132-1.6626 6.2891-3.5625 1.8375-1.1213 3.4305-3.138 4.25-4.7676 2.3754-4.747 1.559-10.248-3.75-15.035-4.5125-4.0721-8.2969-7.5204-8.2969-11.5 0-6.1474 6.2754-4.7129 6.2754-4.7129-0.82-0.3872-1.715-0.5668-2.627-0.5701zm-7.4297 4.3203c-0.49411 0.88319-0.79492 1.8491-0.79492 2.8633 0 6.0796 6.2918 10.078 9.7793 13.641 5.4038 5.5633 7.1201 11.017 2.9609 15.098 0.52774-1.0841 0.78385-2.256 0.75391-3.3691-0.206-6.7304-9.5327-12.901-12.312-16.143-3.7622-4.392-3.8304-9.1914-0.38672-12.09zm-4.2676 22.637c-0.65274-0.0081-1.3652 0.09017-2.1504 0.29883 3.2956 0.99815 3.6001 5.6955 5.4297 7.7461 2.4781 2.7572 5.8219 3.373 7.6289 1.3203-3.337 0.2108-4.8-4.2638-6.3359-6.5703-1.1971-1.7937-2.6141-2.7705-4.5723-2.7949zm14.275 15.09s-1.946 0.75-4.9355 0.75c-3.0041 0-4.6348-0.68164-4.6348-0.68164l0.80274 2.7207s0.47498 0.29418 1.7578 0.47266l2.171 10.429 2.173-10.455c1.2475-0.18018 1.8418-0.44727 1.8418-0.44727l0.82422-2.7891z" transform="matrix(.8 0 0 -.8 197 426.48)" fill="#c4b581"/></g></g></svg>
