<svg id="svg" version="1.1" xmlns="http://www.w3.org/2000/svg" xmlns:xlink="http://www.w3.org/1999/xlink" width="400" height="335.6666666666667" viewBox="0, 0, 400,335.6666666666667"><g id="svgg"><path id="path0" d="M186.333 66.558 C 184.096 66.902,175.694 68.035,174.667 68.132 C 174.025 68.193,171.925 68.580,170.000 68.994 C 168.075 69.407,166.200 69.789,165.833 69.843 C 162.645 70.312,152.151 73.432,145.825 75.793 C 144.537 76.273,143.300 76.667,143.075 76.667 C 142.850 76.667,142.667 76.817,142.667 77.000 C 142.667 77.183,142.554 77.300,142.417 77.259 C 141.392 76.952,125.860 84.601,120.333 88.134 C 113.662 92.399,106.803 97.226,104.117 99.547 C 103.723 99.888,102.675 100.767,101.789 101.500 C 99.769 103.173,93.930 108.616,92.188 110.451 C 90.534 112.195,86.437 116.623,85.317 117.880 C 84.849 118.404,84.024 119.433,83.483 120.167 C 82.943 120.900,82.162 121.873,81.750 122.330 C 81.337 122.786,81.000 123.260,81.000 123.382 C 81.000 123.568,79.895 125.021,78.286 126.951 C 78.080 127.198,76.657 129.298,75.125 131.617 C 73.593 133.936,72.226 135.992,72.087 136.186 C 71.947 136.380,71.552 137.055,71.208 137.686 C 70.863 138.317,70.278 139.358,69.907 140.000 C 68.762 141.980,63.430 152.785,63.163 153.667 C 63.024 154.125,62.509 155.400,62.017 156.500 C 61.525 157.600,60.934 159.025,60.704 159.667 C 59.549 162.887,57.614 168.779,56.983 171.000 C 56.592 172.375,56.136 173.845,55.969 174.266 C 55.135 176.376,55.090 176.360,61.417 176.230 C 70.230 176.050,74.719 174.173,75.991 170.135 C 76.775 167.645,78.712 162.160,79.157 161.167 C 79.404 160.617,79.864 159.492,80.179 158.667 C 80.495 157.842,81.199 156.192,81.744 155.000 C 82.290 153.808,82.969 152.233,83.254 151.500 C 83.539 150.767,83.885 150.017,84.023 149.833 C 84.161 149.650,85.187 147.728,86.302 145.563 C 87.417 143.398,88.780 140.971,89.331 140.170 C 89.882 139.369,90.333 138.615,90.333 138.494 C 90.333 138.288,94.757 131.604,95.393 130.851 C 95.555 130.658,96.753 129.075,98.055 127.333 C 104.687 118.457,111.760 111.703,124.500 102.080 C 125.005 101.699,128.990 99.198,130.500 98.315 C 131.233 97.886,131.944 97.377,132.078 97.184 C 132.213 96.991,132.325 96.956,132.328 97.106 C 132.331 97.256,132.746 97.088,133.250 96.732 C 133.754 96.377,134.767 95.789,135.500 95.426 C 136.233 95.063,137.883 94.236,139.167 93.588 C 140.450 92.939,142.625 91.922,144.000 91.326 C 145.375 90.730,147.173 89.946,147.995 89.583 C 151.732 87.933,161.355 84.948,166.500 83.841 C 167.967 83.526,170.142 83.054,171.333 82.791 C 172.525 82.529,173.800 82.264,174.167 82.202 C 174.533 82.140,175.808 81.920,177.000 81.713 C 178.192 81.506,179.992 81.261,181.000 81.169 C 182.008 81.076,183.433 80.941,184.167 80.868 C 193.141 79.980,207.817 79.789,213.333 80.490 C 213.975 80.571,215.250 80.733,216.167 80.849 C 217.083 80.965,218.808 81.120,220.000 81.195 C 222.423 81.346,231.166 82.994,235.000 84.021 C 236.375 84.390,237.903 84.762,238.396 84.848 C 239.816 85.097,248.539 87.940,251.833 89.226 C 256.995 91.242,265.104 95.142,267.824 96.917 C 268.737 97.513,269.598 98.000,269.736 98.000 C 269.873 98.000,271.434 98.975,273.204 100.167 C 274.974 101.358,276.552 102.333,276.711 102.333 C 276.870 102.333,277.000 102.451,277.000 102.595 C 277.000 102.739,277.436 103.114,277.969 103.429 C 278.502 103.744,279.524 104.489,280.239 105.084 C 280.955 105.679,282.122 106.617,282.833 107.167 C 283.543 107.717,284.659 108.630,285.313 109.196 C 285.966 109.763,286.944 110.588,287.488 111.030 C 288.964 112.231,296.282 119.658,298.000 121.699 C 302.881 127.498,309.667 136.758,309.667 137.620 C 309.667 137.784,309.880 138.096,310.142 138.313 C 310.403 138.530,311.610 140.535,312.823 142.770 C 314.036 145.005,315.168 147.058,315.339 147.333 C 315.678 147.879,317.206 151.010,318.674 154.167 C 319.740 156.459,322.308 162.959,323.218 165.667 C 323.556 166.675,323.908 167.575,324.000 167.667 C 324.092 167.758,324.209 168.087,324.260 168.397 C 325.094 173.430,329.623 175.975,338.243 176.255 C 344.085 176.445,344.787 176.312,344.518 175.071 C 344.410 174.574,344.265 173.863,344.195 173.492 C 343.933 172.104,340.900 162.817,340.576 162.409 C 340.390 162.175,340.321 161.901,340.423 161.799 C 340.524 161.698,340.246 160.797,339.804 159.798 C 339.362 158.799,339.000 157.831,339.000 157.648 C 339.000 157.465,338.483 156.269,337.851 154.991 C 337.220 153.713,336.763 152.667,336.838 152.667 C 336.982 152.667,335.785 150.127,334.481 147.667 C 334.044 146.842,333.138 145.048,332.469 143.680 C 330.942 140.557,326.664 133.392,324.958 131.098 C 324.248 130.143,323.667 129.275,323.667 129.168 C 323.667 128.868,317.207 120.292,316.127 119.159 C 315.599 118.605,314.772 117.626,314.290 116.983 C 312.978 115.236,302.796 105.010,300.500 103.134 C 299.400 102.235,298.261 101.241,297.968 100.925 C 297.676 100.609,296.251 99.453,294.802 98.355 C 293.352 97.258,292.005 96.222,291.807 96.054 C 291.609 95.885,290.846 95.367,290.110 94.903 C 289.375 94.439,288.562 93.853,288.303 93.601 C 287.681 92.995,280.531 88.285,278.833 87.364 C 278.100 86.966,276.600 86.113,275.500 85.469 C 273.037 84.026,262.442 78.836,260.167 77.958 C 259.250 77.604,258.200 77.187,257.833 77.030 C 254.986 75.812,249.163 73.734,247.890 73.482 C 247.555 73.416,246.467 73.057,245.472 72.685 C 244.477 72.313,243.589 72.006,243.498 72.004 C 243.408 72.002,243.296 71.989,243.250 71.974 C 243.164 71.948,242.653 71.823,241.500 71.545 C 241.133 71.457,239.633 71.078,238.167 70.704 C 234.445 69.754,227.761 68.364,226.167 68.208 C 224.937 68.088,219.660 67.322,216.500 66.805 C 215.063 66.570,187.714 66.346,186.333 66.558 M224.818 110.083 C 222.062 111.868,221.862 111.989,221.123 112.311 C 220.733 112.481,219.344 113.305,218.037 114.143 C 216.729 114.981,215.511 115.667,215.330 115.667 C 215.148 115.667,215.000 115.791,215.000 115.944 C 215.000 116.096,214.588 116.432,214.083 116.690 C 213.579 116.948,212.117 117.835,210.833 118.661 C 209.550 119.488,208.275 120.260,208.000 120.378 C 207.725 120.495,206.294 121.410,204.819 122.412 C 203.345 123.413,201.995 124.292,201.819 124.366 C 201.644 124.440,200.396 125.250,199.047 126.167 C 197.698 127.083,196.344 127.983,196.039 128.167 C 195.734 128.350,193.958 129.512,192.092 130.750 C 187.969 133.485,189.454 133.481,180.891 130.776 C 179.455 130.323,177.993 129.888,177.641 129.809 C 177.288 129.731,176.721 129.604,176.381 129.528 C 176.041 129.452,174.660 129.062,173.313 128.661 C 171.966 128.259,170.482 127.871,170.015 127.798 C 169.548 127.724,168.534 127.497,167.761 127.292 C 166.141 126.863,165.281 127.480,155.833 135.857 C 154.367 137.157,152.658 138.659,152.037 139.194 C 151.415 139.729,150.734 140.317,150.522 140.500 C 150.310 140.683,148.989 141.928,147.587 143.266 L 145.038 145.698 143.269 145.525 C 142.296 145.429,140.241 145.112,138.703 144.820 C 137.164 144.528,135.495 144.238,134.994 144.174 C 134.492 144.111,131.916 143.663,129.268 143.180 L 124.454 142.300 122.841 143.900 C 121.953 144.780,120.252 146.550,119.061 147.833 C 99.731 168.652,95.366 172.605,90.724 173.490 C 90.296 173.572,89.122 173.947,88.113 174.325 C 87.104 174.702,85.799 175.073,85.212 175.148 C 83.462 175.372,82.333 175.720,82.333 176.036 C 82.333 176.210,131.247 176.333,199.833 176.333 C 272.284 176.333,317.333 176.214,317.333 176.022 C 317.333 175.669,316.610 175.398,315.163 175.209 C 313.985 175.055,311.461 174.201,310.120 173.501 C 309.596 173.228,309.036 173.003,308.877 173.002 C 307.918 172.995,301.465 168.259,299.333 165.998 C 299.058 165.706,297.918 164.725,296.800 163.817 C 295.682 162.909,293.568 161.117,292.103 159.833 C 290.637 158.550,289.152 157.265,288.802 156.977 C 288.453 156.689,286.963 155.414,285.491 154.143 C 284.019 152.873,282.077 151.233,281.175 150.500 C 280.274 149.767,278.930 148.642,278.188 148.000 C 277.447 147.358,276.661 146.683,276.441 146.500 C 276.221 146.317,275.259 145.492,274.305 144.667 C 272.314 142.946,268.992 140.232,265.216 137.240 C 263.776 136.100,261.151 133.963,259.382 132.491 C 257.614 131.020,254.967 128.920,253.500 127.824 C 252.033 126.729,250.758 125.751,250.667 125.651 C 250.575 125.551,249.375 124.613,248.000 123.567 C 246.625 122.521,245.318 121.514,245.095 121.331 C 244.873 121.147,244.193 120.658,243.584 120.245 C 242.976 119.832,242.258 119.305,241.989 119.074 C 240.537 117.827,239.748 117.234,238.682 116.586 C 238.032 116.191,237.425 115.772,237.333 115.653 C 236.694 114.827,227.358 109.007,226.662 109.001 C 226.568 109.001,225.738 109.487,224.818 110.083 " stroke="none" fill="#047cc4" fill-rule="evenodd"></path><path id="path1" d="M84.500 199.211 C 66.005 200.979,53.869 212.073,51.348 229.517 C 49.069 245.285,56.994 259.599,71.542 265.993 C 80.875 270.095,97.329 270.475,104.570 266.756 C 105.734 266.158,106.662 264.355,109.896 256.402 C 110.990 253.712,110.965 253.702,107.458 255.419 C 92.557 262.715,81.938 262.389,72.222 254.340 C 61.214 245.220,60.336 224.265,70.559 214.684 C 78.747 207.010,90.334 206.362,103.049 212.867 C 104.267 213.490,105.355 214.000,105.465 214.000 C 105.576 214.000,105.667 211.250,105.667 207.889 L 105.667 201.778 101.750 200.891 C 96.454 199.691,88.045 198.872,84.500 199.211 M137.500 199.386 C 122.658 200.854,114.299 210.010,117.290 221.523 C 118.804 227.348,122.711 231.016,132.215 235.532 C 150.569 244.254,152.519 245.878,151.895 251.925 C 150.784 262.687,131.425 264.347,117.598 254.866 C 116.369 254.023,115.232 253.333,115.072 253.333 C 114.766 253.333,115.766 258.124,116.957 262.355 C 117.347 263.741,117.667 265.192,117.667 265.577 C 117.667 268.142,136.634 270.514,143.729 268.836 C 154.266 266.344,161.043 260.455,163.128 251.979 C 165.341 242.985,161.370 237.426,148.167 231.028 C 132.203 223.293,129.927 221.803,129.032 218.500 C 125.968 207.193,143.431 202.755,155.343 211.814 C 156.442 212.649,157.414 213.333,157.504 213.333 C 157.593 213.333,157.667 210.639,157.667 207.346 L 157.667 201.359 156.333 201.013 C 155.600 200.822,154.391 200.509,153.648 200.315 C 152.174 199.933,143.115 198.990,141.500 199.052 C 140.950 199.073,139.150 199.223,137.500 199.386 M264.833 199.225 C 248.950 200.574,240.411 208.420,242.296 219.933 C 243.447 226.965,247.537 230.827,260.064 236.708 C 274.939 243.692,277.327 245.668,277.327 251.000 C 277.327 262.386,258.118 264.724,243.398 255.128 C 239.750 252.751,239.863 252.375,241.825 260.333 C 242.255 262.075,242.701 264.062,242.818 264.749 C 243.483 268.669,263.230 270.944,272.048 268.118 C 281.957 264.941,288.388 257.638,288.913 248.966 C 289.392 241.062,285.544 236.732,272.500 230.500 C 257.154 223.168,254.782 221.485,254.185 217.509 C 252.639 207.199,268.201 203.233,279.680 211.012 C 280.696 211.700,281.727 212.504,281.971 212.798 C 283.162 214.234,283.333 213.553,283.333 207.374 L 283.333 201.415 280.417 200.684 C 278.813 200.281,275.325 199.741,272.667 199.483 C 267.886 199.019,267.438 199.004,264.833 199.225 M169.333 200.956 C 169.333 201.115,169.947 201.651,170.696 202.147 C 171.655 202.781,172.322 203.610,172.946 204.941 L 173.833 206.833 174.000 229.667 L 174.167 252.500 175.105 255.154 C 180.399 270.135,202.749 274.597,215.525 263.223 L 217.333 261.613 217.333 264.640 L 217.333 267.667 224.833 267.667 C 232.843 267.667,232.986 267.635,231.035 266.287 C 230.288 265.771,229.433 264.739,228.964 263.787 L 228.167 262.167 228.076 235.028 C 227.971 203.847,227.854 205.303,230.695 202.619 C 231.596 201.768,232.333 200.980,232.333 200.869 C 232.333 200.758,227.908 200.667,222.500 200.667 C 211.983 200.667,211.977 200.668,213.999 202.293 C 216.895 204.620,217.001 205.594,216.995 229.774 C 216.989 250.991,216.934 251.698,215.091 254.356 C 207.392 265.459,188.070 262.741,185.437 250.185 C 184.882 247.538,184.817 209.789,185.362 206.811 C 185.791 204.469,186.682 202.892,188.024 202.099 C 190.256 200.781,189.547 200.667,179.167 200.667 C 173.758 200.667,169.333 200.797,169.333 200.956 M297.000 200.949 C 297.000 201.130,297.517 201.599,298.150 201.990 C 299.630 202.904,300.487 204.337,301.050 206.833 C 301.718 209.802,301.706 258.479,301.036 261.802 C 300.553 264.195,299.077 266.386,297.641 266.842 C 295.344 267.570,298.006 267.700,312.917 267.584 L 328.833 267.461 331.990 266.532 C 352.802 260.406,355.210 235.574,335.583 229.474 C 333.223 228.740,333.222 228.760,335.703 227.333 C 347.257 220.691,343.496 204.491,329.684 201.406 C 327.016 200.810,297.000 200.391,297.000 200.949 M325.336 209.195 C 329.943 211.378,331.933 215.326,330.709 219.851 C 329.454 224.486,323.180 227.667,315.292 227.667 L 312.167 227.667 312.167 218.083 C 312.167 209.893,312.239 208.465,312.667 208.262 C 314.258 207.503,323.148 208.158,325.336 209.195 M326.500 235.161 C 333.542 237.014,336.833 241.051,336.829 247.833 C 336.823 257.349,328.002 261.712,313.333 259.454 L 312.167 259.275 312.167 247.123 C 312.167 235.242,312.182 234.968,312.833 234.824 C 315.572 234.222,323.693 234.422,326.500 235.161 " stroke="none" fill="#838484" fill-rule="evenodd"></path><path id="path2" d="" stroke="none" fill="#6880a8" fill-rule="evenodd"></path><path id="path3" d="" stroke="none" fill="#2880a4" fill-rule="evenodd"></path><path id="path4" d="" stroke="none" fill="#0480c8" fill-rule="evenodd"></path></g></svg>
