<svg xmlns="http://www.w3.org/2000/svg" height="48.26" viewBox="1.1690008640289307 2.8668861389160156 106.23098754882812 44.04011535644531" width="249.33"><path d="M14.213 2.867C7.998 2.89 2.253 5.85 2.253 12.07c0 11.154 18.058 9.012 18.058 17.221 0 3.686-4.478 6.144-7.477 6.144-2.115 0-4.284-.455-6.31-1.25-2.633-1.104-4.555-3.249-4.555-3.249l-.8.131 2.037 7.713h.485s.325-.734 1.198-.513l-.003-.005c2.39.65 4.875.963 7.364.963 9.173 0 14.331-5.744 14.093-11.369-.445-10.321-18.09-9.156-18.09-16.365 0-3.635 3.785-5.03 6.787-5.03 1.118 0 2.89.24 4.175.773.99.368 2.803 1.487 3.916 2.823.157.218.263.362.263.362h.02c0 .002.006.001.006.006h.373l.55.004-1.894-7.08H21.8c-.281.488-1.326.302-1.326.302-1.891-.475-3.095-.636-5.014-.749a19.883 19.883 0 0 0-1.248-.035zm44.516 0c-6.215.023-11.961 2.983-11.961 9.203 0 11.154 18.06 9.012 18.06 17.221 0 3.686-4.48 6.144-7.48 6.144-2.115 0-4.28-.455-6.31-1.25-2.63-1.104-4.555-3.249-4.555-3.249l-.797.131 2.038 7.713h.485s.322-.734 1.194-.513v-.005c2.387.65 4.87.963 7.362.963 9.17 0 14.329-5.744 14.089-11.369-.44-10.321-18.086-9.156-18.086-16.365 0-3.635 3.787-5.03 6.787-5.03 1.118 0 2.893.24 4.175.773.988.368 2.803 1.487 3.915 2.823l.263.362h.022l.006.006h.372l.55.004-1.893-7.08h-.65c-.28.488-1.325.302-1.325.302-1.89-.475-3.092-.636-5.012-.749a19.91 19.91 0 0 0-1.25-.035zm-28.446.535v.845l2.473 1.214.007.003.087.042c.518.291.744.85.769 1.433v24.968c-.161 7.527-1.773 11.434-9.406 14.07v.93s8.04-.05 11.678-4.403h-.003c1.908-2.197 3.062-5.557 3.292-10.525V7.059a.05.05 0 0 1 .009-.009c0-.625.225-1.234.775-1.544l.089-.042.005-.003 2.47-1.216v-.843H30.284zm43.828.06v.002h-.791v.843l2.473 1.215s0 .003.005.004l.087.043c.55.311.778.918.778 1.541l.003.007v17.88c0 3.728-.101 7.198 2.633 10.205 1.21 1.317 2.775 2.24 4.476 2.824 0 0 .258.096.75.234.205.052.411.109.62.157 2.369.575 7.383 1.395 11.963-.44.023-.012.047-.02.07-.03.058-.022.125-.038.183-.062h-.017c1.539-.591 2.956-1.469 4.066-2.683 2.74-3.007 2.63-6.477 2.63-10.205l.02-17.912v-.034c.02-.602.24-1.184.77-1.482l.09-.043.01-.005 2.47-1.214v-.843h-.79V3.46H96.217v.003h-.784v.843l2.47 1.214v.005l.094.043c.488.277.72.787.763 1.336v.15l.011 17.942c0 6.695-2.738 10.45-7.778 10.624l-.015.036c-.273-.005-.545-.016-.815-.016-5.325 0-8.224-3.757-8.224-10.644V10.712c0-2.047-.006-3.156-.003-3.842.05-.535.285-1.029.763-1.301l.09-.043.006-.005 2.469-1.214v-.843h-.768V3.46H74.111z" fill="#0055a2"/></svg>