<?xml version="1.0" encoding="utf-8"?>
<!-- Generator: Adobe Illustrator 22.0.1, SVG Export Plug-In . SVG Version: 6.00 Build 0)  -->
<svg version="1.1" id="Layer_1" xmlns="http://www.w3.org/2000/svg" xmlns:xlink="http://www.w3.org/1999/xlink" x="0px" y="0px"
	 width="250.1px" height="82.18px" viewBox="0 0 250.1 82.18" enable-background="new 0 0 250.1 82.18" xml:space="preserve">
<g>
	<path fill="#F5C400" d="M55.49,11.66l-0.11-1.3l-1.24-0.41L26.99,0.88l-2.6-0.87v2.74v3.71L1.7,14.03l-1.24,0.41l-0.1,1.3
		c-0.84,10.42-0.39,26.01,6.55,41.09c7.52,16.34,21.09,23.54,21.67,23.83l2.88,1.5v-3.25V73.9c4.7-3.41,12.47-10.27,17.48-21.15
		C55.88,37.67,56.33,22.08,55.49,11.66"/>
	<path fill="#D13239" d="M26.36,2.75v72.08c0,0,13.46-6.99,20.79-22.91c6.8-14.77,7.19-30.05,6.38-40.11L26.36,2.75z"/>
	<path fill="#A93439" d="M29.49,6.84v72.08c0,0-13.46-6.99-20.79-22.91C1.91,41.24,1.52,25.95,2.33,15.9L29.49,6.84z"/>
	<path fill="#FFFFFF" d="M41.36,27.64h-0.84c-0.03-3.08-1.25-5.36-3.66-6.85c-2.36-1.46-5.23-2.19-8.6-2.19
		c-2.68,0-4.89,0.57-6.61,1.71c-1.75,1.14-2.46,2.45-2.51,4.05c-0.05,1.7,0.57,3.09,1.95,4.07c1.43,1.06,4.26,2.32,8.48,3.78
		c3.93,1.35,6.68,2.46,8.24,3.3c1.67,0.93,3.07,2.26,4.18,3.98c1.11,1.78,1.67,3.76,1.67,5.93c0,3.32-1.22,5.92-3.66,7.8
		c0.9-1.25,1.35-3,1.35-5.26c0-2.12-0.49-4.01-1.47-5.65c-1.04-1.67-2.31-3-3.82-3.98c-1.54-1.01-4.05-2.08-7.53-3.23
		c-5.23-1.73-8.3-3.13-10.04-4.38c-1.65-1.18-2.86-3.42-2.86-6.05c0-3.03,1.49-5.2,3.93-6.93c2.44-1.67,5.9-2.51,10.39-2.51
		c3.05,0,6.99,0.55,11.39,1.61V27.64z M13.87,56.43c4.41,1.06,8.34,1.61,11.39,1.61c4.48,0,7.95-0.84,10.39-2.51
		c2.44-1.73,3.93-3.9,3.93-6.93c0-2.63-1.21-4.87-2.86-6.05c-1.74-1.25-4.81-2.65-10.04-4.38c-3.48-1.14-5.99-2.22-7.53-3.22
		c-1.51-0.98-2.79-2.31-3.82-3.98c-0.98-1.65-1.47-3.53-1.47-5.66c0-2.25,0.45-4.01,1.35-5.25c-2.44,1.88-3.66,4.48-3.66,7.8
		c0,2.18,0.56,4.15,1.67,5.93c1.11,1.73,2.51,3.05,4.18,3.98c1.57,0.85,4.32,1.95,8.24,3.3c4.22,1.46,7.05,2.72,8.48,3.78
		c1.38,0.98,2,2.37,1.95,4.07c-0.04,1.61-0.76,2.91-2.51,4.06c-1.72,1.14-3.93,1.71-6.61,1.71c-3.37,0-6.24-0.73-8.6-2.19
		c-2.42-1.49-3.64-3.77-3.66-6.85h-0.84V56.43z"/>
</g>
</svg>
