<?xml version="1.0" encoding="iso-8859-1"?>
<!-- Generator: Adobe Illustrator 19.0.0, SVG Export Plug-In . SVG Version: 6.00 Build 0)  -->
<svg version="1.1" id="Layer_1" xmlns="http://www.w3.org/2000/svg" xmlns:xlink="http://www.w3.org/1999/xlink" x="0px" y="0px"
	 viewBox="0 0 512 512" style="enable-background:new 0 0 512 512;" xml:space="preserve">
<g>
	<path style="fill:#A78966;" d="M477.918,88.384c-21.979-21.979-51.202-34.081-82.281-34.081c-3.885,0-7.742,0.189-11.557,0.563
		c-3.817,0.374-7.593,0.932-11.321,1.671c-11.18,2.217-21.91,6.059-31.905,11.405c-6.664,3.565-13,7.799-18.927,12.668
		c-2.963,2.434-5.823,5.027-8.571,7.775c-21.979,21.979-34.084,51.2-34.082,82.288c0.002,6.048,0.49,12.187,1.454,18.264
		l14.068,168.944c0.284,26.281,11.39,51.304,31.347,70.566c6.018,5.809,12.629,10.844,19.636,15.02
		c2.802,1.671,5.668,3.204,8.585,4.596c2.917,1.392,5.883,2.639,8.887,3.741c3.004,1.1,6.046,2.053,9.114,2.853
		c3.067,0.799,6.16,1.446,9.263,1.933c3.105,0.487,6.222,0.816,9.339,0.982c1.558,0.082,3.117,0.124,4.673,0.124h0h0.003
		c24.905,0,50.233-10.66,69.492-29.249c19.956-19.262,31.063-44.283,31.347-70.564l14.089-169.078
		c0.95-6.048,1.432-12.145,1.432-18.139C512,139.584,499.895,110.362,477.918,88.384z"/>
	<path style="fill:#A78966;" d="M198.645,88.384c-21.979-21.979-51.202-34.081-82.282-34.081c-3.885,0-7.742,0.189-11.557,0.563
		c-3.817,0.374-7.593,0.932-11.321,1.671c-11.18,2.217-21.91,6.059-31.907,11.405c-6.664,3.565-13,7.799-18.927,12.668
		c-2.963,2.434-5.823,5.027-8.571,7.775C12.103,110.364-0.002,139.585,0,170.673c0.002,6.048,0.49,12.187,1.454,18.264
		l14.068,168.944c0.284,26.281,11.39,51.304,31.347,70.566c6.018,5.809,12.629,10.844,19.636,15.02
		c2.802,1.671,5.668,3.204,8.585,4.596c2.917,1.392,5.883,2.639,8.887,3.741c3.004,1.1,6.046,2.053,9.114,2.853
		s6.16,1.446,9.264,1.933c3.105,0.487,6.222,0.816,9.339,0.982c1.558,0.082,3.117,0.124,4.673,0.124h-0.002h0.003
		c24.905,0,50.233-10.66,69.492-29.249c19.956-19.262,31.063-44.283,31.347-70.564l14.089-169.078
		c0.95-6.048,1.432-12.145,1.432-18.139C232.727,139.584,220.622,110.362,198.645,88.384z"/>
</g>
<g>
	<path style="fill:#FFB655;" d="M29.891,273.211c0.642,0,1.285-0.034,1.924-0.087c4.966-0.41,9.84-2.403,13.796-6.031l8.414-7.713
		l62.338-57.144l62.345,57.145l8.415,7.713c3.956,3.627,8.828,5.62,13.793,6.029c0.642,0.053,1.285,0.087,1.927,0.087
		c6.296,0,12.573-2.54,17.163-7.547c8.685-9.475,8.045-24.197-1.43-32.881l-13.283-12.175l-21.696-19.887L132.09,153.51
		c-0.04-0.037-0.087-0.068-0.129-0.105c-0.343-0.312-0.703-0.591-1.061-0.88c-0.254-0.203-0.5-0.419-0.76-0.61
		c-0.36-0.267-0.737-0.503-1.111-0.745c-0.278-0.182-0.549-0.374-0.833-0.543c-0.346-0.203-0.701-0.379-1.057-0.563
		c-0.327-0.172-0.652-0.355-0.987-0.512c-0.312-0.144-0.633-0.262-0.95-0.391c-0.388-0.16-0.771-0.329-1.164-0.465
		c-0.284-0.098-0.573-0.171-0.858-0.258c-0.436-0.133-0.869-0.273-1.308-0.38c-0.278-0.067-0.555-0.109-0.835-0.166
		c-0.453-0.093-0.903-0.191-1.361-0.256c-0.303-0.043-0.608-0.061-0.912-0.092c-0.433-0.043-0.866-0.098-1.3-0.118
		c-0.352-0.017-0.703-0.003-1.055-0.005c-0.388-0.002-0.776-0.014-1.164,0.005c-0.397,0.019-0.794,0.07-1.192,0.109
		c-0.34,0.034-0.681,0.054-1.021,0.102c-0.42,0.061-0.836,0.154-1.255,0.237c-0.315,0.062-0.63,0.112-0.94,0.188
		c-0.408,0.099-0.807,0.23-1.209,0.352c-0.318,0.096-0.641,0.178-0.954,0.289c-0.365,0.127-0.72,0.285-1.077,0.43
		c-0.348,0.141-0.697,0.27-1.036,0.427c-0.309,0.143-0.607,0.313-0.909,0.472c-0.38,0.197-0.763,0.385-1.133,0.605
		c-0.259,0.154-0.506,0.33-0.76,0.495c-0.399,0.258-0.799,0.51-1.185,0.794c-0.236,0.175-0.462,0.374-0.694,0.559
		c-0.379,0.303-0.76,0.6-1.125,0.929c-0.039,0.036-0.082,0.065-0.119,0.099L49.14,200.719l-21.696,19.889l-13.283,12.178
		c-9.475,8.685-10.116,23.408-1.43,32.881C17.32,270.671,23.594,273.211,29.891,273.211z"/>
	<path style="fill:#FFB655;" d="M309.164,273.211c0.642,0,1.285-0.034,1.924-0.087c4.966-0.41,9.84-2.403,13.796-6.031l8.414-7.713
		l62.338-57.144l62.345,57.145l8.415,7.713c3.956,3.627,8.828,5.62,13.793,6.029c0.642,0.053,1.285,0.087,1.927,0.087
		c6.296,0,12.572-2.54,17.161-7.547c8.685-9.475,8.045-24.197-1.43-32.881l-13.281-12.175l-21.696-19.887l-51.506-47.211
		c-0.04-0.037-0.087-0.068-0.126-0.104c-0.352-0.318-0.718-0.605-1.085-0.897c-0.245-0.197-0.484-0.406-0.734-0.591
		c-0.375-0.276-0.763-0.52-1.15-0.771c-0.265-0.172-0.524-0.357-0.794-0.517c-0.362-0.214-0.735-0.397-1.105-0.59
		c-0.312-0.163-0.619-0.338-0.936-0.486c-0.331-0.154-0.67-0.278-1.004-0.414c-0.369-0.15-0.737-0.313-1.112-0.444
		c-0.299-0.104-0.605-0.182-0.906-0.273c-0.419-0.127-0.836-0.264-1.261-0.366c-0.289-0.07-0.582-0.115-0.874-0.174
		c-0.441-0.088-0.878-0.186-1.323-0.25c-0.309-0.045-0.622-0.062-0.936-0.095c-0.425-0.043-0.852-0.098-1.278-0.116
		c-0.352-0.017-0.704-0.003-1.057-0.005c-0.388-0.002-0.776-0.014-1.164,0.005c-0.393,0.019-0.782,0.07-1.173,0.107
		c-0.348,0.034-0.695,0.054-1.043,0.104c-0.41,0.057-0.815,0.15-1.221,0.23c-0.324,0.065-0.652,0.115-0.974,0.194
		c-0.396,0.096-0.782,0.223-1.171,0.341c-0.332,0.099-0.667,0.185-0.995,0.299c-0.352,0.124-0.694,0.276-1.043,0.417
		c-0.357,0.144-0.718,0.278-1.069,0.442c-0.299,0.138-0.588,0.304-0.881,0.456c-0.388,0.202-0.782,0.396-1.161,0.621
		c-0.251,0.149-0.49,0.321-0.739,0.481c-0.406,0.262-0.813,0.52-1.204,0.808c-0.234,0.172-0.458,0.368-0.684,0.551
		c-0.382,0.304-0.766,0.605-1.133,0.937c-0.039,0.036-0.082,0.065-0.119,0.099l-51.498,47.206l-21.696,19.889l-13.283,12.178
		c-9.475,8.685-10.116,23.408-1.43,32.881C296.592,270.671,302.867,273.211,309.164,273.211z"/>
</g>
<path style="fill:#EE8700;" d="M114.058,147.534c-0.34,0.034-0.681,0.054-1.021,0.102c-0.42,0.061-0.836,0.154-1.255,0.237
	c-0.315,0.062-0.63,0.112-0.94,0.188c-0.408,0.099-0.807,0.23-1.209,0.352c-0.318,0.096-0.641,0.178-0.954,0.289
	c-0.365,0.127-0.72,0.285-1.077,0.43c-0.348,0.141-0.697,0.27-1.036,0.427c-0.309,0.143-0.607,0.313-0.909,0.472
	c-0.38,0.197-0.763,0.385-1.133,0.605c-0.259,0.154-0.506,0.33-0.76,0.495c-0.399,0.258-0.799,0.51-1.185,0.794
	c-0.236,0.175-0.462,0.374-0.694,0.559c-0.379,0.303-0.76,0.6-1.125,0.929c-0.039,0.036-0.082,0.065-0.119,0.101l-51.498,47.206
	l-21.696,19.889l-13.284,12.178c-9.475,8.685-10.116,23.406-1.43,32.881c4.591,5.007,10.865,7.547,17.163,7.547
	c0.642,0,1.285-0.034,1.924-0.087c4.966-0.41,9.84-2.403,13.796-6.031l8.414-7.713l62.335-57.147V147.42
	c-0.372-0.002-0.743-0.012-1.116,0.005C114.851,147.444,114.455,147.495,114.058,147.534z"/>
<path style="fill:#806749;" d="M54.024,259.381l-8.414,7.713c-3.956,3.627-8.828,5.62-13.796,6.031
	c-0.639,0.053-1.282,0.087-1.924,0.087c-6.298,0-12.572-2.54-17.163-7.547c-8.685-9.474-8.046-24.196,1.43-32.881l13.284-12.178
	l21.696-19.889l51.498-47.206c0.037-0.036,0.081-0.065,0.119-0.101c0.363-0.329,0.745-0.627,1.125-0.929
	c0.231-0.186,0.458-0.383,0.694-0.559c0.386-0.284,0.787-0.537,1.185-0.794c0.254-0.164,0.501-0.341,0.76-0.495
	c0.369-0.219,0.752-0.408,1.133-0.605c0.303-0.158,0.6-0.329,0.909-0.472c0.34-0.158,0.689-0.287,1.036-0.427
	c0.357-0.146,0.712-0.303,1.077-0.43c0.313-0.11,0.636-0.192,0.954-0.289c0.403-0.123,0.802-0.253,1.209-0.352
	c0.31-0.076,0.625-0.124,0.94-0.188c0.419-0.084,0.833-0.177,1.255-0.237c0.34-0.048,0.681-0.068,1.021-0.102
	c0.397-0.039,0.794-0.09,1.192-0.109c0.372-0.017,0.743-0.006,1.116-0.005V54.303c-31.082,0-60.304,12.103-82.282,34.082
	C12.103,110.364-0.002,139.585,0,170.673c0.002,6.048,0.49,12.187,1.454,18.264l14.068,168.944
	c0.284,26.281,11.39,51.304,31.347,70.566c19.259,18.587,44.589,29.249,69.494,29.249h0.002v-255.46L54.024,259.381z"/>
<path style="fill:#EE8700;" d="M393.348,147.532c-0.348,0.034-0.695,0.054-1.043,0.104c-0.41,0.057-0.815,0.15-1.221,0.23
	c-0.324,0.065-0.652,0.115-0.974,0.194c-0.396,0.096-0.782,0.223-1.171,0.341c-0.332,0.099-0.667,0.185-0.995,0.299
	c-0.352,0.124-0.694,0.276-1.043,0.416c-0.357,0.144-0.718,0.278-1.069,0.442c-0.299,0.138-0.588,0.304-0.881,0.455
	c-0.388,0.202-0.782,0.396-1.161,0.621c-0.251,0.149-0.49,0.321-0.739,0.481c-0.406,0.262-0.813,0.52-1.204,0.808
	c-0.234,0.172-0.458,0.368-0.684,0.551c-0.382,0.304-0.766,0.605-1.133,0.936c-0.039,0.036-0.082,0.065-0.119,0.101l-51.498,47.206
	l-21.696,19.889l-13.284,12.178c-9.475,8.685-10.116,23.406-1.43,32.881c4.591,5.007,10.865,7.547,17.163,7.547
	c0.642,0,1.285-0.034,1.924-0.087c4.966-0.41,9.84-2.403,13.796-6.031l8.414-7.713l62.337-57.144V147.42
	c-0.372-0.002-0.743-0.012-1.116,0.005C394.128,147.444,393.739,147.493,393.348,147.532z"/>
<path style="fill:#806749;" d="M333.296,259.381l-8.414,7.713c-3.956,3.627-8.828,5.62-13.796,6.031
	c-0.639,0.053-1.282,0.087-1.924,0.087c-6.298,0-12.572-2.54-17.163-7.547c-8.685-9.474-8.046-24.196,1.431-32.881l13.284-12.178
	l21.696-19.889l51.498-47.206c0.037-0.036,0.081-0.065,0.119-0.101c0.366-0.332,0.751-0.631,1.133-0.936
	c0.227-0.183,0.45-0.379,0.684-0.551c0.391-0.289,0.799-0.546,1.204-0.808c0.247-0.158,0.486-0.332,0.738-0.481
	c0.379-0.225,0.773-0.419,1.161-0.621c0.293-0.152,0.582-0.318,0.881-0.455c0.352-0.164,0.712-0.296,1.069-0.442
	c0.349-0.141,0.69-0.293,1.043-0.416c0.327-0.115,0.663-0.2,0.995-0.299c0.389-0.118,0.776-0.245,1.171-0.341
	c0.323-0.079,0.65-0.129,0.974-0.194c0.406-0.081,0.811-0.172,1.221-0.23c0.348-0.05,0.695-0.071,1.043-0.104
	c0.391-0.039,0.78-0.088,1.173-0.107c0.372-0.017,0.743-0.006,1.116-0.005V54.303c-31.082,0-60.304,12.103-82.282,34.082
	c-21.979,21.979-34.084,51.2-34.082,82.288c0.002,6.048,0.49,12.187,1.454,18.264l14.068,168.944
	c0.284,26.281,11.39,51.304,31.347,70.566c19.262,18.587,44.592,29.249,69.497,29.249h0.002v-255.46L333.296,259.381z"/>
<g>
</g>
<g>
</g>
<g>
</g>
<g>
</g>
<g>
</g>
<g>
</g>
<g>
</g>
<g>
</g>
<g>
</g>
<g>
</g>
<g>
</g>
<g>
</g>
<g>
</g>
<g>
</g>
<g>
</g>
</svg>
